PathFileType	4	(X/Y/Z)	/Users/itak/Documents/Research/Walk-IL/dataset/trc/00571_00009.trc
DataRate	CameraRate	NumFrames	NumMarkers	Units	OrigDataRate	OrigDataStartFrame	OrigNumFrames
100.000000	100.000000	4	54	mm	100.000000	437	500
Frame#	Time	RPSI			LPSI			L3			STRN			T10			C7			CLAV			RBAK			LBAK			LSHO			LUPA			LAEL			LAOL			LWTS			LWPS			LFRA			LHPS			LHTS			RSHO			RUPA			RAEL			RAOL			RWPS			RFRA			RHTS			RHPS			RBHD			LFHD			RFHD			LBHD			LHIP			RHIP			RASI			LASI			LKNE			LTHI			LANK			LTIP			LTOE			LMT1			LMT5			LHEE			RKNE			RTHI			RANK			RTIP			RTOE			RMT1			RMT5			RHEE			RWTS			RIFD			LIFD			*53			
		X1	Y1	Z1	X2	Y2	Z2	X3	Y3	Z3	X4	Y4	Z4	X5	Y5	Z5	X6	Y6	Z6	X7	Y7	Z7	X8	Y8	Z8	X9	Y9	Z9	X10	Y10	Z10	X11	Y11	Z11	X12	Y12	Z12	X13	Y13	Z13	X14	Y14	Z14	X15	Y15	Z15	X16	Y16	Z16	X17	Y17	Z17	X18	Y18	Z18	X19	Y19	Z19	X20	Y20	Z20	X21	Y21	Z21	X22	Y22	Z22	X23	Y23	Z23	X24	Y24	Z24	X25	Y25	Z25	X26	Y26	Z26	X27	Y27	Z27	X28	Y28	Z28	X29	Y29	Z29	X30	Y30	Z30	X31	Y31	Z31	X32	Y32	Z32	X33	Y33	Z33	X34	Y34	Z34	X35	Y35	Z35	X36	Y36	Z36	X37	Y37	Z37	X38	Y38	Z38	X39	Y39	Z39	X40	Y40	Z40	X41	Y41	Z41	X42	Y42	Z42	X43	Y43	Z43	X44	Y44	Z44	X45	Y45	Z45	X46	Y46	Z46	X47	Y47	Z47	X48	Y48	Z48	X49	Y49	Z49	X50	Y50	Z50	X51	Y51	Z51	X52	Y52	Z52	X53	Y53	Z53	X54	Y54	Z54	

438	4.37	280.8707885742188	1015.678588867188	864.8848266601562	414.5251159667969	1020.834045410156	865.5011596679688	351.4139709472656	1109.157348632812	870.0072021484375	365.63916015625	1302.574340820312	1094.040405273438	352.25048828125	1234.7236328125	856.2941284179688	341.9409484863281	1511.092163085938	897.1664428710938	365.4231262207031	1413.63916015625	1071.79443359375	252.5155487060547	1383.070190429688	835.1137084960938	430.0569152832031	1456.812866210938	857.588623046875	521.8300170898438	1481.852416992188	946.577880859375	595.5980834960938	1352.216430664062	927.0088500976562	617.638671875	1131.404418945312	936.4442138671875	550.6080322265625	1126.711059570312	861.4808349609375	587.8187866210938	882.5098876953125	1019.10205078125	650.5098266601562	864.2127075195312	959.8460693359375	628.3516845703125	1044.079345703125	952.707763671875	643.1279907226562	803.4249267578125	962.3907470703125	609.4613037109375	802.6273803710938	1021.80859375	190.7134399414062	1473.92236328125	966.4182739257812	120.1375885009766	1409.33251953125	953.4635620117188	75.78659820556641	1119.556640625	953.2508544921875	102.3510665893555	1101.947509765625	897.6478881835938	44.70734405517578	879.716796875	1042.612670898438	66.53450012207031	1064.29638671875	963.1796264648438	95.15064239501953	808.5779418945312	1116.32080078125	47.09337615966797	805.8381958007812	1059.989501953125	278.3709411621094	1696.492553710938	985.1343383789062	429.0249938964844	1712.897216796875	1127.665405273438	285.2340393066406	1710.537841796875	1124.941040039062	444.3339233398438	1697.782104492188	995.3760986328125	546.7430419921875	943.0440063476562	991.2444458007812	162.4834136962891	944.184814453125	991.3614501953125	219.6610870361328	978.787109375	1077.094482421875	496.1737670898438	969.7128295898438	1071.424072265625	477.2340698242188	498.6685485839844	1012.321411132812	517.0748291015625	662.6478881835938	1015.75537109375	457.7152404785156	34.75421905517578	908.2747802734375	473.9142150878906	255.8969268798828	938.9498901367188	406.5704956054688	44.65285491943359	1122.106323242188	368.404052734375	48.73225402832031	1050.858520507812	477.2767333984375	37.37948226928711	1030.015258789062	399.5469970703125	39.54443359375	842.2420043945312	216.2617034912109	501.8174438476562	1020.651000976562	167.5202026367188	791.191162109375	1031.73583984375	233.6420593261719	44.15910339355469	907.2830810546875	233.1899871826172	358.4466552734375	1010.657348632812	289.9809265136719	43.24433517456055	1124.042724609375	327.711669921875	39.86911392211914	1055.290161132812	225.470458984375	45.13888549804688	1039.653076171875	280.9626159667969	33.12661743164062	847.867431640625	111.5016021728516	899.8468017578125	1088.28955078125	107.8233947753906	726.51953125	1096.700805664062	580.0833129882812	710.57666015625	1004.83984375	nan	nan	nan	
439	4.38	280.5970153808594	1015.71826171875	865.49658203125	414.2693176269531	1020.855163574219	866.077880859375	351.2040405273438	1109.159423828125	870.6910400390625	365.53271484375	1302.544555664062	1094.719604492188	352.0687866210938	1234.743408203125	856.96240234375	341.7300109863281	1511.117919921875	897.9182739257812	365.2428283691406	1413.57861328125	1072.518432617188	252.3081207275391	1383.081787109375	835.86474609375	429.812744140625	1456.869262695312	858.3271484375	521.634521484375	1481.953857421875	947.3016357421875	595.4470825195312	1352.371704101562	927.53369140625	617.521728515625	1131.505615234375	936.6184692382812	550.4663696289062	1127.029052734375	861.6552734375	587.8700561523438	882.2059936523438	1018.28759765625	650.5741577148438	864.32373046875	959.10546875	628.2696533203125	1044.166259765625	952.64794921875	643.2586669921875	803.4862060546875	961.2784423828125	609.6013793945312	802.4149780273438	1020.753723144531	190.4849395751953	1473.844116210938	967.18408203125	119.9703903198242	1409.212158203125	954.2176513671875	75.85408782958984	1119.446655273438	953.9189453125	102.3365173339844	1101.824951171875	898.3479614257812	45.3367919921875	879.7066040039062	1043.809204101562	66.58285522460938	1064.134521484375	964.0042724609375	95.93631744384766	808.8258056640625	1117.648193359375	47.76768493652344	805.8441162109375	1061.369262695312	278.0619201660156	1696.395874023438	986.0489501953125	428.7729797363281	1712.858764648438	1128.538940429688	284.9666442871094	1710.413940429688	1125.843383789062	444.0514221191406	1697.832885742188	996.2343139648438	546.48828125	942.924560546875	991.8167724609375	162.4039459228516	944.3258666992188	992.3212280273438	219.4620513916016	978.7692260742188	1077.772705078125	495.9657897949219	969.5518798828125	1072.041870117188	477.0765075683594	498.57763671875	1012.249633789062	516.919921875	662.5707397460938	1015.931091308594	457.7037658691406	34.74772262573242	908.2489624023438	473.8246154785156	255.8888854980469	938.83935546875	406.5980834960938	44.66315841674805	1122.0546875	368.3993225097656	48.72796249389648	1050.838989257812	477.2312316894531	37.40297317504883	1030.019653320312	399.4729919433594	39.44921493530273	842.2276000976562	216.0091705322266	501.8183898925781	1020.269653320312	167.260009765625	791.1460571289062	1032.12451171875	233.6396331787109	44.13474655151367	907.2736206054688	233.0526733398438	358.4750671386719	1010.253967285156	289.9653625488281	43.25494003295898	1124.04052734375	327.71875	39.86766815185547	1055.28955078125	225.4941253662109	45.13764572143555	1039.6484375	280.9535522460938	33.09883117675781	847.867919921875	111.9809722900391	900.0972290039062	1089.39013671875	108.7322235107422	726.741455078125	1098.236450195312	580.3442993164062	710.3770751953125	1003.874206542969	nan	nan	nan	
440	4.39	280.2982788085938	1015.761840820312	866.1278076171875	414.0226440429688	1020.877685546875	866.6344604492188	350.9793090820312	1109.1591796875	871.3668212890625	365.4530944824219	1302.514038085938	1095.371459960938	351.8936767578125	1234.765869140625	857.6005249023438	341.5140991210938	1511.137573242188	898.6417236328125	365.07470703125	1413.523315429688	1073.2158203125	252.0826568603516	1383.084594726562	836.6011962890625	429.5592956542969	1456.919189453125	859.0179443359375	521.4357299804688	1482.05419921875	947.9697875976562	595.3111572265625	1352.542236328125	928.028076171875	617.4197387695312	1131.62060546875	936.8585815429688	550.3943481445312	1127.313598632812	861.8316650390625	587.9526977539062	881.9542846679688	1017.674926757812	650.6638793945312	864.4388427734375	958.5892944335938	628.2156372070312	1044.267578125	952.6845703125	643.4129028320312	803.5706787109375	960.4570922851562	609.7642822265625	802.2797241210938	1019.983276367188	190.2585754394531	1473.76904296875	967.946044921875	119.7945938110352	1409.090454101562	954.9840698242188	75.93409729003906	1119.325439453125	954.6087646484375	102.3054046630859	1101.695068359375	899.0765380859375	46.00727462768555	879.6675415039062	1044.9990234375	66.66172790527344	1063.963500976562	964.8369750976562	96.81416320800781	809.0527954101562	1118.940673828125	48.54982376098633	805.818603515625	1062.723022460938	277.7706298828125	1696.293701171875	986.9191284179688	428.53759765625	1712.811889648438	1129.376220703125	284.7222290039062	1710.30078125	1126.720947265625	443.7811889648438	1697.878295898438	997.0628662109375	546.1740112304688	942.777099609375	992.2767944335938	162.1570892333984	944.5235595703125	993.1083984375	219.2929077148438	978.7444458007812	1078.455688476562	495.7601013183594	969.3912353515625	1072.629150390625	476.9219665527344	498.4913024902344	1012.133728027344	516.7957153320312	662.50537109375	1016.062927246094	457.6933898925781	34.7415657043457	908.2225952148438	473.728759765625	255.8734893798828	938.71533203125	406.6184387207031	44.67547225952148	1122.0087890625	368.3934020996094	48.72484970092773	1050.819702148438	477.1937255859375	37.42301177978516	1030.020263671875	399.4059448242188	39.35703659057617	842.2107543945312	215.7864685058594	501.8084106445312	1019.8330078125	167.0187835693359	791.0728759765625	1032.470703125	233.6333923339844	44.10087966918945	907.2621459960938	232.9120788574219	358.5095825195312	1009.811279296875	289.9497985839844	43.26587677001953	1124.035400390625	327.7242736816406	39.86861038208008	1055.28662109375	225.5077819824219	45.13993072509766	1039.645263671875	280.9409484863281	33.07036209106445	847.8701171875	112.5590667724609	900.3052368164062	1090.466796875	109.7433090209961	726.9381103515625	1099.717407226562	580.6279296875	710.2543334960938	1003.193603515625	nan	nan	nan	
441	4.4	279.9841613769531	1015.818969726562	866.7816162109375	413.7752075195312	1020.907287597656	867.1968383789062	350.7431945800781	1109.1611328125	872.0335693359375	365.3930053710938	1302.479614257812	1095.997192382812	351.7295227050781	1234.79638671875	858.2122802734375	341.2956848144531	1511.15380859375	899.3408203125	364.9226684570312	1413.476440429688	1073.892578125	251.8425903320312	1383.081787109375	837.3191528320312	429.3015747070312	1456.963134765625	859.666015625	521.2325439453125	1482.15283203125	948.5820922851562	595.1883544921875	1352.724731445312	928.50439453125	617.3316040039062	1131.750854492188	937.1651611328125	550.3831176757812	1127.556518554688	862.023193359375	588.0626220703125	881.7739868164062	1017.292175292969	650.7734985351562	864.5557861328125	958.2945556640625	628.1864624023438	1044.384887695312	952.818603515625	643.5858154296875	803.6768188476562	959.9351806640625	609.9305419921875	802.2051391601562	1019.484252929688	190.0389709472656	1473.700805664062	968.7048950195312	119.617073059082	1408.973754882812	955.7621459960938	76.02117919921875	1119.193115234375	955.3325805664062	102.2548522949219	1101.556274414062	899.838134765625	46.70502853393555	879.596435546875	1046.172607421875	66.77163696289062	1063.789184570312	965.67529296875	97.77546691894531	809.2508544921875	1120.190307617188	49.44745635986328	805.7601928710938	1064.039306640625	277.4978637695312	1696.1943359375	987.742431640625	428.31884765625	1712.7529296875	1130.178955078125	284.4977111816406	1710.196533203125	1127.571411132812	443.5215454101562	1697.913208007812	997.859619140625	545.845458984375	942.6377563476562	992.6644287109375	161.7939300537109	944.7255859375	993.7255859375	219.1528625488281	978.711181640625	1079.1416015625	495.5658874511719	969.2424926757812	1073.186767578125	476.7701416015625	498.4111022949219	1011.972961425781	516.703125	662.4511108398438	1016.152099609375	457.6846923828125	34.73545074462891	908.1961059570312	473.6308898925781	255.8531341552734	938.5778198242188	406.6304016113281	44.69010543823242	1121.969848632812	368.3877868652344	48.7232551574707	1050.801025390625	477.1679077148438	37.43842315673828	1030.015747070312	399.3521423339844	39.2707633972168	842.18798828125	215.609619140625	501.7828979492188	1019.339782714844	166.7867889404297	790.9885864257812	1032.790161132812	233.6250915527344	44.05830383300781	907.24658203125	232.7673645019531	358.55712890625	1009.326782226562	289.9386291503906	43.2765998840332	1124.025756835938	327.7285461425781	39.87185668945312	1055.28076171875	225.5119323730469	45.14488983154297	1039.642944335938	280.9237365722656	33.04074859619141	847.8750610351562	113.2444686889648	900.4646606445312	1091.511962890625	110.8437194824219	727.107666015625	1101.1357421875	580.9151611328125	710.1920776367188	1002.784851074219	nan	nan	nan	
